<?xml version="1.0" standalone="no"?>
<!DOCTYPE svg PUBLIC "-//W3C//DTD SVG 20010904//EN"
 "http://www.w3.org/TR/2001/REC-SVG-20010904/DTD/svg10.dtd">
<svg version="1.0" xmlns="http://www.w3.org/2000/svg"
 width="360.000000pt" height="360.000000pt" viewBox="0 0 360.000000 360.000000"
 preserveAspectRatio="xMidYMid meet">
<metadata>
Created by potrace 1.11, written by Peter Selinger 2001-2013
</metadata>
<g transform="translate(0.000000,360.000000) scale(0.100000,-0.100000)"
fill="#000000" stroke="none">
<path d="M2173 2696 c-79 -15 -237 -65 -229 -73 2 -3 31 1 63 8 32 6 103 12
158 13 83 1 123 -5 235 -33 150 -38 255 -45 333 -22 51 15 59 26 25 34 -13 3
-86 21 -163 41 -165 43 -306 54 -422 32z"/>
<path d="M2025 2590 c-130 -26 -242 -93 -426 -254 l-44 -38 50 7 c82 11 205
45 285 78 59 24 92 48 163 114 49 46 93 83 98 83 5 0 9 5 9 10 0 12 -77 11
-135 0z"/>
<path d="M1915 2339 c-74 -34 -178 -63 -315 -88 -96 -17 -122 -27 -290 -113
-102 -52 -215 -104 -252 -116 -98 -32 -255 -61 -373 -71 -58 -4 -108 -10 -111
-13 -14 -15 309 -47 471 -48 269 0 466 27 835 115 266 63 386 83 555 92 l125
6 0 47 c0 59 -33 123 -84 164 -36 29 -43 31 -119 31 -110 -1 -166 -26 -246
-111 -64 -67 -95 -79 -125 -48 -25 24 -30 63 -18 123 7 30 11 55 9 56 -1 1
-29 -10 -62 -26z"/>
<path d="M34 2018 c34 -49 144 -152 209 -195 129 -86 314 -149 510 -173 139
-18 475 -8 641 19 170 28 340 68 571 134 185 54 317 83 480 108 109 17 401 17
495 0 110 -20 247 -66 313 -105 l58 -35 -20 28 c-28 38 -114 103 -186 139
-142 71 -310 102 -555 102 -210 0 -360 -22 -656 -95 -387 -95 -604 -121 -934
-112 -217 6 -346 22 -525 64 -124 29 -286 83 -357 119 -58 30 -63 30 -44 2z"/>
<path d="M2570 1873 c-149 -15 -317 -53 -600 -136 -379 -110 -687 -160 -1000
-159 -312 0 -553 55 -730 167 l-43 27 44 -62 c166 -237 450 -354 809 -336 274
13 505 66 998 227 428 139 566 169 782 169 219 0 370 -36 548 -130 l77 -40
-68 64 c-167 159 -494 242 -817 209z"/>
<path d="M2711 1709 c-139 -15 -302 -56 -561 -141 -636 -206 -924 -266 -1239
-255 -176 5 -283 30 -400 92 -36 19 -66 33 -68 31 -3 -2 24 -39 59 -82 161
-199 390 -275 697 -230 159 24 310 64 566 152 810 279 896 304 1102 325 217
21 401 -12 598 -110 l114 -56 -37 39 c-54 56 -171 130 -261 165 -158 61 -394
90 -570 70z"/>
</g>
</svg>
