<?xml version="1.0" encoding="UTF-8"?>
<svg id="Layer_1" xmlns="http://www.w3.org/2000/svg" version="1.1" viewBox="0 0 638.87 208.96">
  <!-- Generator: Adobe Illustrator 29.5.1, SVG Export Plug-In . SVG Version: 2.1.0 Build 141)  -->
  <defs>
    <style>
      .st0 {
        fill: #fff;
      }
    </style>
  </defs>
  <rect class="st0" x="215.25" y="64.33" width="18.42" height="86.05"/>
  <polygon class="st0" points="274.95 115.31 274.76 115.31 267.33 64.33 241 64.33 241 150.38 258.22 150.38 258.22 86.26 258.42 86.26 268.22 150.38 281.49 150.38 291.29 86.26 291.49 86.26 291.49 150.38 308.72 150.38 308.72 64.33 282.38 64.33 274.95 115.31"/>
  <polygon class="st0" points="188.82 123.87 188.62 123.87 181.39 64.33 164.76 64.33 158.13 123.87 157.93 123.87 152.39 64.33 134.56 64.33 146.64 150.38 166.84 150.38 172.98 92.53 173.18 92.53 179.31 150.38 199.51 150.38 211.59 64.33 193.77 64.33 188.82 123.87"/>
  <path class="st0" d="M124.57,104.94c-2.24-2.01-4.65-3.63-7.23-4.88-2.58-1.24-4.99-2.47-7.23-3.68-2.24-1.2-4.11-2.63-5.59-4.28-1.49-1.65-2.23-3.88-2.23-6.69,0-1.93.46-3.68,1.39-5.24.92-1.57,2.38-2.35,4.35-2.35,1.78,0,3.1.9,3.96,2.71s1.29,4,1.29,6.57v2.05h17.23c0-9.24-1.8-15.97-5.4-20.19s-9.42-6.33-17.48-6.33-13.6,2.29-17.42,6.87c-3.83,4.58-5.74,11.25-5.74,20.01,0,5.06.71,9.16,2.13,12.29s3.2,5.66,5.35,7.59c2.14,1.93,4.47,3.5,6.98,4.7s4.83,2.39,6.98,3.56c2.14,1.17,3.93,2.57,5.35,4.22s2.13,3.88,2.13,6.69c0,2.33-.51,4.3-1.53,5.91s-2.49,2.41-4.41,2.41c-1.78,0-3.23-.74-4.35-2.23-1.12-1.49-1.68-4.08-1.68-7.77v-2.05h-17.82v3.01c0,4.5.53,8.28,1.59,11.33,1.05,3.05,2.59,5.53,4.6,7.41,2.01,1.89,4.49,3.21,7.43,3.98,2.94.76,6.32,1.14,10.15,1.14,8.12,0,14.32-2.07,18.61-6.21,4.29-4.14,6.44-10.79,6.44-19.95,0-5.22-.74-9.46-2.23-12.71-1.49-3.25-3.35-5.89-5.59-7.9h-.03Z"/>
  <polygon class="st0" points="350 115.31 349.8 115.31 342.38 64.33 316.04 64.33 316.04 150.38 333.27 150.38 333.27 86.26 333.47 86.26 343.27 150.38 356.53 150.38 366.34 86.26 366.53 86.26 366.53 150.38 383.76 150.38 383.76 64.33 357.43 64.33 350 115.31"/>
  <path class="st0" d="M499.89,118.8h6.53c0,3.7-.15,6.73-.44,9.1-.3,2.37-.71,4.22-1.24,5.54-.53,1.33-1.17,2.23-1.93,2.71-.76.48-1.63.72-2.62.72-1.39,0-2.49-.44-3.32-1.33-.82-.88-1.45-2.45-1.88-4.7s-.71-5.28-.84-9.1-.2-8.62-.2-14.4.06-10.59.2-14.4c.13-3.81.41-6.85.84-9.1s1.09-3.81,1.98-4.7c.89-.88,2.09-1.33,3.61-1.33,2.18,0,3.6,1.25,4.26,3.74.66,2.09.99,5.42.99,10h17.82c0-5.22-.56-9.66-1.68-13.32s-2.67-6.65-4.66-8.98c-1.98-2.33-4.34-4.02-7.08-5.06-2.74-1.04-5.73-1.57-8.96-1.57-5.41,0-9.83.98-13.27,2.95-3.43,1.97-6.12,4.84-8.07,8.62s-3.27,8.44-3.96,13.98c-.69,5.55-1.04,11.93-1.04,19.16s.18,13.5.54,19.04c.36,5.55,1.24,10.21,2.62,13.98,1.39,3.78,3.43,6.61,6.14,8.5,2.71,1.89,6.4,2.83,11.09,2.83,1.59,0,3.15-.12,4.7-.36,1.55-.24,3-.66,4.35-1.27,1.35-.6,2.58-1.51,3.66-2.71,1.09-1.2,1.93-2.73,2.53-4.58h.2l.4,7.59h12.47v-46.76h-23.76v15.19l.02.02Z"/>
  <polygon class="st0" points="450.19 117.36 449.99 117.36 438.11 64.33 417.52 64.33 417.52 150.38 434.75 150.38 434.75 97.23 434.95 97.23 447.22 150.38 467.42 150.38 467.42 64.33 450.19 64.33 450.19 117.36"/>
  <rect class="st0" x="391.09" y="64.33" width="18.42" height="86.05"/>
  <g>
    <path class="st0" d="M97.05,7.74c-.42-.77-1.1-1.15-2.04-1.15-.73,0-1.32.19-1.75.58-.44.38-.77,1.06-.99,2.04-.23.98-.38,2.29-.44,3.95-.07,1.66-.1,3.74-.1,6.25s.03,4.6.1,6.25c.07,1.66.22,2.97.44,3.95.23.98.56,1.66.99,2.04.44.38,1.02.58,1.75.58.59,0,1.08-.15,1.46-.44.38-.3.68-.79.89-1.49.21-.7.36-1.63.44-2.8.09-1.17.13-2.64.13-4.42h9.42v2.77c0,2.62-.35,4.76-1.05,6.44s-1.62,2.99-2.77,3.95c-1.15.96-2.47,1.6-3.95,1.94-1.48.33-3.01.5-4.58.5-2.72,0-4.95-.33-6.7-.99-1.74-.66-3.1-1.77-4.08-3.32s-1.65-3.56-2.01-6.02c-.37-2.46-.55-5.43-.55-8.92s.22-6.57.65-9.05c.44-2.48,1.18-4.48,2.22-6.02,1.05-1.53,2.42-2.64,4.13-3.32,1.71-.68,3.82-1.02,6.33-1.02,2.2,0,4.06.28,5.6.84,1.53.56,2.78,1.35,3.74,2.38.96,1.03,1.66,2.27,2.09,3.71.44,1.45.65,3.08.65,4.89v2.35h-9.42v-2.09c0-2.13-.21-3.58-.63-4.34l.03-.02Z"/>
    <path class="st0" d="M110.44,10.49c.45-2.46,1.2-4.46,2.25-6.02,1.05-1.55,2.42-2.69,4.13-3.4C118.53.36,120.62,0,123.1,0s4.57.36,6.28,1.07c1.71.72,3.09,1.85,4.13,3.4,1.05,1.55,1.8,3.56,2.25,6.02s.68,5.43.68,8.92-.23,6.46-.68,8.92-1.2,4.47-2.25,6.02-2.42,2.66-4.13,3.32c-1.71.66-3.8.99-6.28.99s-4.57-.33-6.28-.99-3.09-1.77-4.13-3.32c-1.05-1.55-1.8-3.56-2.25-6.02-.45-2.46-.68-5.43-.68-8.92s.23-6.46.68-8.92ZM119.91,25.66c.07,1.66.22,2.97.44,3.95.23.98.56,1.66.99,2.04.44.38,1.02.58,1.75.58s1.32-.19,1.75-.58c.44-.38.77-1.06.99-2.04.23-.98.37-2.29.44-3.95s.1-3.74.1-6.25-.03-4.6-.1-6.25c-.07-1.66-.22-2.97-.44-3.95-.23-.98-.56-1.66-.99-2.04-.44-.38-1.02-.58-1.75-.58s-1.32.19-1.75.58c-.44.38-.77,1.06-.99,2.04-.23.98-.38,2.29-.44,3.95-.07,1.66-.1,3.74-.1,6.25s.03,4.6.1,6.25Z"/>
    <path class="st0" d="M149.68.73v29.4h11.98v7.95h-21.71V.73h9.73Z"/>
    <path class="st0" d="M173.91.73v29.4h11.98v7.95h-21.71V.73h9.73Z"/>
    <path class="st0" d="M210.53.73v7.95h-12.4v6.38h11.61v7.64h-11.61v7.43h12.87v7.95h-22.6V.73h22.13Z"/>
    <path class="st0" d="M239.67,17.79v20.3h-6.59l-.21-3.3h-.1c-.31.8-.76,1.47-1.34,1.99-.57.52-1.22.92-1.94,1.18-.72.26-1.48.44-2.3.55-.82.1-1.65.16-2.49.16-2.48,0-4.43-.41-5.86-1.23-1.43-.82-2.51-2.05-3.24-3.69-.73-1.64-1.19-3.66-1.39-6.07-.19-2.41-.29-5.16-.29-8.27s.18-5.91.55-8.32c.37-2.41,1.06-4.43,2.09-6.07,1.03-1.64,2.45-2.89,4.26-3.74C222.63.43,224.97,0,227.83,0c1.71,0,3.29.23,4.74.68,1.45.45,2.69,1.19,3.74,2.2s1.87,2.31,2.46,3.9c.59,1.59.89,3.51.89,5.78h-9.42c0-1.99-.17-3.43-.52-4.34-.35-1.08-1.1-1.62-2.25-1.62-.8,0-1.44.19-1.91.58-.47.38-.82,1.06-1.05,2.04s-.38,2.29-.45,3.95c-.07,1.66-.1,3.74-.1,6.25s.03,4.6.1,6.25c.07,1.66.22,2.97.45,3.95.23.98.56,1.66.99,2.04.44.38,1.02.58,1.75.58.52,0,.98-.1,1.39-.31s.74-.6,1.02-1.18.5-1.38.65-2.41c.16-1.03.24-2.35.24-3.95h-3.45v-6.59h12.57Z"/>
    <path class="st0" d="M265.78.73v7.95h-12.4v6.38h11.61v7.64h-11.61v7.43h12.87v7.95h-22.6V.73h22.13Z"/>
    <path class="st0" d="M297.7,7.74c-.42-.77-1.1-1.15-2.04-1.15-.73,0-1.32.19-1.75.58-.44.38-.77,1.06-.99,2.04-.23.98-.38,2.29-.44,3.95-.07,1.66-.1,3.74-.1,6.25s.03,4.6.1,6.25c.07,1.66.22,2.97.44,3.95.23.98.56,1.66.99,2.04.44.38,1.02.58,1.75.58.59,0,1.08-.15,1.46-.44.38-.3.68-.79.89-1.49.21-.7.36-1.63.44-2.8.09-1.17.13-2.64.13-4.42h9.42v2.77c0,2.62-.35,4.76-1.05,6.44-.7,1.67-1.62,2.99-2.77,3.95s-2.47,1.6-3.95,1.94c-1.48.33-3.01.5-4.58.5-2.72,0-4.95-.33-6.7-.99-1.74-.66-3.1-1.77-4.08-3.32-.98-1.55-1.65-3.56-2.01-6.02-.37-2.46-.55-5.43-.55-8.92s.22-6.57.65-9.05c.44-2.48,1.18-4.48,2.22-6.02,1.05-1.53,2.42-2.64,4.13-3.32,1.71-.68,3.82-1.02,6.33-1.02,2.2,0,4.06.28,5.6.84,1.53.56,2.78,1.35,3.74,2.38.96,1.03,1.66,2.27,2.09,3.71.44,1.45.65,3.08.65,4.89v2.35h-9.42v-2.09c0-2.13-.21-3.58-.63-4.34l.03-.02Z"/>
    <path class="st0" d="M321.24.73v29.4h11.98v7.95h-21.71V.73h9.73,0Z"/>
    <path class="st0" d="M345.04,27.68c0,1.81.26,3.03.79,3.64.52.61,1.24.92,2.15.92s1.62-.31,2.15-.92c.52-.61.79-1.82.79-3.64V.73h9.73v24.49c0,2.62-.28,4.8-.84,6.54-.56,1.74-1.37,3.14-2.43,4.19s-2.38,1.76-3.95,2.15c-1.57.38-3.38.58-5.44.58s-3.83-.19-5.41-.58c-1.59-.38-2.91-1.1-3.98-2.15-1.06-1.05-1.88-2.44-2.43-4.19-.56-1.74-.84-3.92-.84-6.54V.73h9.73v26.94h-.02Z"/>
    <path class="st0" d="M379.84.73c3.49,0,6.06.85,7.72,2.54,1.66,1.69,2.48,3.95,2.48,6.78,0,.98-.11,1.93-.34,2.85-.23.92-.58,1.76-1.05,2.51s-1.07,1.39-1.81,1.91-1.62.89-2.67,1.1v.1c1.22.11,2.27.43,3.14.97.87.54,1.59,1.21,2.15,2.01s.97,1.68,1.23,2.64.39,1.93.39,2.9c0,1.6-.21,3.09-.63,4.45-.42,1.36-1.07,2.53-1.96,3.51-.89.98-2.05,1.74-3.48,2.28-1.43.54-3.16.81-5.18.81h-14.7V.73h14.71ZM377.22,15.38c1.01,0,1.78-.37,2.3-1.12s.79-1.63.79-2.64-.26-1.95-.79-2.72c-.52-.77-1.29-1.15-2.3-1.15h-2.35v7.64h2.35ZM377.59,31.08c.91,0,1.71-.37,2.41-1.12s1.05-1.91,1.05-3.48c0-1.47-.35-2.58-1.05-3.35-.7-.77-1.5-1.15-2.41-1.15h-2.72v9.1h2.72Z"/>
  </g>
  <g>
    <path class="st0" d="M369.25,181.2c0,.43.03.83.08,1.19.06.36.16.67.31.94s.36.47.62.62.6.23,1,.23.75-.08,1.01-.23.46-.36.61-.62.26-.58.31-.94c.06-.36.08-.76.08-1.19v-11.95h3.46v11.95c0,1.09-.15,1.99-.46,2.7s-.71,1.28-1.22,1.69c-.51.42-1.1.7-1.75.84s-1.34.22-2.04.22-1.38-.06-2.04-.19-1.24-.39-1.75-.78-.92-.95-1.22-1.67-.46-1.66-.46-2.81v-11.95h3.46v11.95h0Z"/>
    <path class="st0" d="M383.38,186.39h-3.17v-3.74h3.17v3.74Z"/>
    <path class="st0" d="M389.86,181.54c0,.4.03.76.1,1.09.06.33.18.6.36.83.18.22.41.4.71.53s.67.19,1.12.19c.53,0,1-.17,1.43-.52.42-.34.64-.88.64-1.6,0-.38-.05-.72-.16-1-.1-.28-.28-.53-.52-.76s-.56-.43-.95-.61c-.39-.18-.88-.37-1.45-.56-.77-.26-1.43-.54-1.99-.84s-1.03-.66-1.4-1.07c-.38-.41-.65-.88-.83-1.42s-.26-1.16-.26-1.86c0-1.7.47-2.96,1.42-3.79.94-.83,2.24-1.25,3.89-1.25.77,0,1.48.08,2.12.25.65.17,1.21.44,1.68.82s.84.86,1.1,1.44.4,1.28.4,2.1v.48h-3.31c0-.82-.14-1.44-.43-1.88-.29-.44-.77-.66-1.44-.66-.38,0-.71.06-.96.17-.26.11-.46.26-.61.44-.15.18-.26.4-.31.64-.06.24-.08.49-.08.74,0,.53.11.97.34,1.33.22.36.7.69,1.44,1l2.66,1.15c.66.29,1.19.59,1.61.9.42.31.75.65,1,1.01s.42.76.52,1.19c.1.43.14.91.14,1.44,0,1.81-.52,3.12-1.57,3.95-1.05.82-2.51,1.24-4.38,1.24s-3.35-.42-4.19-1.27-1.26-2.06-1.26-3.65v-.7h3.46v.5h-.04Z"/>
    <path class="st0" d="M404,186.39h-3.17v-3.74h3.17v3.74Z"/>
    <path class="st0" d="M418.97,169.25l2.45,12.1h.05l2.47-12.1h5.11v17.14h-3.17v-13.68h-.05l-3.05,13.68h-2.69l-3.05-13.68h-.05v13.68h-3.17v-17.14h5.15Z"/>
    <path class="st0" d="M440.33,169.25l4.54,17.14h-3.6l-.79-3.62h-4.56l-.79,3.62h-3.6l4.54-17.14h4.27,0ZM439.88,179.93l-1.66-7.7h-.05l-1.66,7.7h3.37Z"/>
    <path class="st0" d="M450.05,181.54c0,.4.03.76.1,1.09.06.33.18.6.36.83.18.22.41.4.71.53s.67.19,1.12.19c.53,0,1-.17,1.43-.52.42-.34.64-.88.64-1.6,0-.38-.05-.72-.16-1-.1-.28-.28-.53-.52-.76s-.56-.43-.95-.61c-.39-.18-.88-.37-1.45-.56-.77-.26-1.43-.54-1.99-.84s-1.03-.66-1.4-1.07c-.38-.41-.65-.88-.83-1.42s-.26-1.16-.26-1.86c0-1.7.47-2.96,1.42-3.79.94-.83,2.24-1.25,3.89-1.25.77,0,1.48.08,2.12.25.65.17,1.21.44,1.68.82s.84.86,1.1,1.44.4,1.28.4,2.1v.48h-3.31c0-.82-.14-1.44-.43-1.88-.29-.44-.77-.66-1.44-.66-.38,0-.71.06-.96.17-.26.11-.46.26-.61.44-.15.18-.26.4-.31.64-.06.24-.08.49-.08.74,0,.53.11.97.34,1.33.22.36.7.69,1.44,1l2.66,1.15c.66.29,1.19.59,1.61.9.42.31.75.65,1,1.01s.42.76.52,1.19c.1.43.14.91.14,1.44,0,1.81-.52,3.12-1.57,3.95-1.05.82-2.51,1.24-4.38,1.24s-3.35-.42-4.19-1.27-1.26-2.06-1.26-3.65v-.7h3.46v.5h-.04Z"/>
    <path class="st0" d="M470.96,172.08h-3.74v14.3h-3.46v-14.3h-3.74v-2.83h10.94v2.83h0Z"/>
    <path class="st0" d="M483.22,172.08h-6.12v4.03h5.76v2.83h-5.76v4.61h6.36v2.83h-9.82v-17.14h9.58v2.83h0Z"/>
    <path class="st0" d="M492.77,169.25c1.44,0,2.56.36,3.36,1.09s1.2,1.84,1.2,3.32c0,1.15-.23,2.09-.7,2.82-.46.73-1.18,1.2-2.16,1.4v.05c.86.13,1.5.41,1.9.84s.65,1.13.74,2.09c.03.32.06.67.07,1.04.02.38.03.8.05,1.26.03.91.08,1.61.14,2.09.1.48.3.81.62.98v.14h-3.74c-.18-.24-.29-.52-.34-.83s-.08-.64-.1-.97l-.1-3.29c-.03-.67-.2-1.2-.5-1.58s-.82-.58-1.54-.58h-1.85v7.25h-3.46v-17.14h6.38l.03.02ZM491.29,176.74c.83,0,1.47-.2,1.92-.59s.67-1.05.67-1.98c0-1.58-.8-2.38-2.4-2.38h-1.63v4.94h1.44,0Z"/>
    <path class="st0" d="M503.72,181.54c0,.4.03.76.1,1.09.06.33.18.6.36.83.18.22.41.4.71.53s.67.19,1.12.19c.53,0,1-.17,1.43-.52.42-.34.64-.88.64-1.6,0-.38-.05-.72-.16-1-.1-.28-.28-.53-.52-.76s-.56-.43-.95-.61c-.39-.18-.88-.37-1.45-.56-.77-.26-1.43-.54-1.99-.84s-1.03-.66-1.4-1.07c-.38-.41-.65-.88-.83-1.42s-.26-1.16-.26-1.86c0-1.7.47-2.96,1.42-3.79.94-.83,2.24-1.25,3.89-1.25.77,0,1.48.08,2.12.25.65.17,1.21.44,1.68.82s.84.86,1.1,1.44.4,1.28.4,2.1v.48h-3.31c0-.82-.14-1.44-.43-1.88-.29-.44-.77-.66-1.44-.66-.38,0-.71.06-.96.17-.26.11-.46.26-.61.44-.15.18-.26.4-.31.64-.06.24-.08.49-.08.74,0,.53.11.97.34,1.33.22.36.7.69,1.44,1l2.66,1.15c.66.29,1.19.59,1.61.9.42.31.75.65,1,1.01s.42.76.52,1.19c.1.43.14.91.14,1.44,0,1.81-.52,3.12-1.57,3.95-1.05.82-2.51,1.24-4.38,1.24s-3.35-.42-4.19-1.27-1.26-2.06-1.26-3.65v-.7h3.46v.5h-.04Z"/>
    <path class="st0" d="M524.33,181.54c0,.4.03.76.1,1.09.06.33.18.6.36.83.18.22.41.4.71.53.3.13.67.19,1.12.19.53,0,1-.17,1.43-.52.42-.34.64-.88.64-1.6,0-.38-.05-.72-.16-1-.1-.28-.28-.53-.52-.76s-.56-.43-.95-.61c-.39-.18-.88-.37-1.45-.56-.77-.26-1.43-.54-1.99-.84s-1.03-.66-1.4-1.07c-.38-.41-.65-.88-.83-1.42s-.26-1.16-.26-1.86c0-1.7.47-2.96,1.42-3.79.94-.83,2.24-1.25,3.89-1.25.77,0,1.48.08,2.12.25.65.17,1.21.44,1.68.82s.84.86,1.1,1.44c.26.58.4,1.28.4,2.1v.48h-3.31c0-.82-.14-1.44-.43-1.88s-.77-.66-1.44-.66c-.38,0-.71.06-.96.17-.26.11-.46.26-.61.44-.15.18-.26.4-.31.64-.06.24-.08.49-.08.74,0,.53.11.97.34,1.33.22.36.7.69,1.44,1l2.66,1.15c.66.29,1.19.59,1.61.9s.75.65,1,1.01.42.76.52,1.19c.1.43.14.91.14,1.44,0,1.81-.52,3.12-1.57,3.95-1.05.82-2.51,1.24-4.38,1.24s-3.35-.42-4.19-1.27-1.26-2.06-1.26-3.65v-.7h3.46v.5h-.04Z"/>
    <path class="st0" d="M537.51,169.25l1.9,12.67h.05l2.02-12.67h3.31l2.02,12.67h.05l1.9-12.67h3.31l-3.12,17.14h-3.86l-1.92-12.43h-.05l-1.92,12.43h-3.86l-3.12-17.14h3.31-.02Z"/>
    <path class="st0" d="M554.81,169.25h3.46v17.14h-3.46v-17.14Z"/>
    <path class="st0" d="M567.25,169.25l2.45,12.1h.05l2.47-12.1h5.11v17.14h-3.17v-13.68h-.05l-3.05,13.68h-2.69l-3.05-13.68h-.05v13.68h-3.17v-17.14h5.15Z"/>
    <path class="st0" d="M586.21,169.25l2.45,12.1h.05l2.47-12.1h5.11v17.14h-3.17v-13.68h-.05l-3.05,13.68h-2.69l-3.05-13.68h-.05v13.68h-3.17v-17.14h5.15Z"/>
    <path class="st0" d="M600.12,169.25h3.46v17.14h-3.46v-17.14Z"/>
    <path class="st0" d="M615.51,180.99h.05v-11.74h3.17v17.14h-3.94l-4.22-12h-.05v12h-3.17v-17.14h3.98l4.18,11.74Z"/>
    <path class="st0" d="M629.82,173.36c-.07-.34-.19-.64-.35-.92s-.36-.51-.61-.7-.55-.28-.9-.28c-.83,0-1.43.46-1.8,1.39s-.55,2.46-.55,4.61c0,1.02.03,1.95.1,2.78.06.83.18,1.54.35,2.12s.41,1.03.72,1.34.72.47,1.21.47c.21,0,.44-.06.68-.17.25-.11.48-.28.7-.5s.4-.51.54-.85c.14-.34.22-.75.22-1.21v-1.75h-2.28v-2.54h5.59v9.24h-2.54v-1.58h-.05c-.42.67-.92,1.15-1.5,1.43s-1.28.42-2.1.42c-1.06,0-1.92-.18-2.58-.55-.66-.37-1.18-.94-1.56-1.7-.38-.77-.63-1.72-.76-2.84s-.19-2.44-.19-3.92.09-2.7.28-3.79c.18-1.09.5-2,.95-2.72s1.04-1.28,1.78-1.64c.74-.37,1.66-.55,2.76-.55,1.89,0,3.25.47,4.08,1.4s1.25,2.28,1.25,4.02h-3.31c0-.32-.04-.65-.11-.98l-.02-.03Z"/>
  </g>
  <g>
    <path class="st0" d="M529.98,77.24c1.1,4.12,1.66,8.93,1.66,14.32v.83l-.59.59-.04.04c3.39.43,6.81.93,10.28,1.52,42.17,7.22,71.86,29.14,71.86,29.14,0,0-22.98-34.38-78.56-45.55-1.53-.31-3.07-.6-4.61-.89Z"/>
    <path class="st0" d="M366.53,158.37h-.83l-.59-.59-3.31-3.31-3.97,3.41-.56.48h-14.75l-.56-.48-3.97-3.41-3.31,3.31-.59.59h-18.88l-.59-.59-2.25-2.25-2.25,2.25-.59.59h-18.89l-.59-.59-2.1-2.1c-1.25.33-2.5.66-3.75.98l-1.43,1.23-.56.48h-4.75c-84.79,21.18-153.36,24.02-202.46-9.78,62.17,102.63,175.37,52.44,297.96,9.78h-6.45.02Z"/>
    <path class="st0" d="M76.49,89.52c0-7.38,1.23-13.7,3.67-18.9C46.78,63.23,19.45,52.92,0,42.2c19.28,28.18,46.19,47,77.8,58.55-.87-3.27-1.31-6.97-1.31-11.23Z"/>
    <path class="st0" d="M75.59,127.84v-3.84l.59-.59,5.98-5.98.59-.59h5.64c-.2-.16-.38-.33-.58-.49-20.43-5.75-38.72-13.96-54.44-24.85,12.01,19.83,26.54,34.79,43.05,45.77-.55-2.83-.83-5.95-.83-9.43Z"/>
    <path class="st0" d="M557.8,107.55c-8.67-1.96-17.31-3.52-26.16-4.58v17.86c10.64.19,21.53,1.18,32.86,3.13,36.99,6.38,71.85,29.14,71.85,29.14,0,0-24.89-33.38-78.55-45.55Z"/>
    <path class="st0" d="M131.5,151.24c-2.59,2.5-5.64,4.45-9.14,5.84,31.05,7.64,66.01,6.95,102.77,1.28h-10.71l-.59-.59-5.98-5.98-.42-.42-.02.12-.1.74-.56.49-5.93,5.15-.56.49h-21.71l-.57-.51-4.9-4.41-4.9,4.41-.57.51h-21.71l-.56-.49-5.93-5.15-.56-.49-.1-.74"/>
    <path class="st0" d="M349.61,61.95l.29.25.29-.26,5.92-5.12.56-.49h27.91l.59.59,2.25,2.25,2.25-2.25.59-.59h20.07l.59.59,2.6,2.6,2.6-2.6.59-.59h22.12l.55.44,5.31,4.25,4.1-4.1.59-.59h18.89l.59.59,5.98,5.98.59.59v.44c.69,0,1.39-.03,2.07-.03,1.91-2.07,4.1-3.82,6.57-5.24,4.64-2.66,10.44-4.01,17.24-4.01,4.19,0,8.16.7,11.81,2.09,3.99,1.52,7.46,4,10.31,7.35,1,1.17,1.91,2.46,2.74,3.86,42.47,7.87,61.36,24.83,61.36,24.83,0,0-18.67-32.88-76.65-44.1-42.23-8.18-92.17-9.15-165.74,9.38l4.49,3.89h-.02Z"/>
  </g>
</svg>