<?xml version="1.0" encoding="UTF-8"?>
<svg id="Layer_1" xmlns="http://www.w3.org/2000/svg" version="1.1" viewBox="0 0 73 90">
  <!-- Generator: Adobe Illustrator 29.5.1, SVG Export Plug-In . SVG Version: 2.1.0 Build 141)  -->
  <defs>
    <style>
      .st0 {
        fill: #fff;
        fill-rule: evenodd;
      }
    </style>
  </defs>
  <g id="Layer_2">
    <path class="st0" d="M19.69,10.7h33.63c10.8,0,19.69,8.89,19.69,19.69v33.45c0,10.8-8.89,19.69-19.69,19.69H19.69c-10.8,0-19.69-8.89-19.69-19.69V30.39C0,19.59,8.89,10.7,19.69,10.7h0ZM56.1,23.42h0c2.26,0,4.18,1.92,4.18,4.18h0c0,2.26-1.92,4.18-4.18,4.18h0c-2.44,0-4.18-1.92-4.18-4.18h0c0-2.26,1.74-4.18,4.18-4.18h0ZM36.41,27.25h.17c10.8,0,19.86,9.06,19.86,19.86h0c0,10.98-9.06,19.86-19.86,19.86h-.17c-10.8,0-19.69-8.89-19.69-19.86h0c0-10.8,8.89-19.86,19.69-19.86h0ZM36.41,34.05h.17c7.14,0,13.07,5.92,13.07,13.07h0c0,7.32-5.92,13.24-13.07,13.24h-.17c-7.14,0-13.07-5.92-13.07-13.24h0c0-7.14,5.92-13.07,13.07-13.07h0ZM19.86,16.97h33.28c7.49,0,13.59,6.1,13.59,13.59v33.1c0,7.49-6.1,13.59-13.59,13.59H19.86c-7.49,0-13.59-6.1-13.59-13.59V30.56c0-7.49,6.1-13.59,13.59-13.59h0Z"/>
  </g>
</svg>