<?xml version="1.0" encoding="UTF-8"?>
<svg id="Layer_4" data-name="Layer 4" xmlns="http://www.w3.org/2000/svg" viewBox="0 0 90 90">
  <defs>
    <style>
      .cls-1 {
        fill: #fff;
        fill-rule: evenodd;
      }
    </style>
  </defs>
  <path class="cls-1" d="M83.9,31.63c-1.25-9.18-5.91-10.74-15.1-11.52-7.94-.62-16.96-.93-23.97-.93s-16.19.31-23.97.93c-9.18.78-14.01,2.33-15.25,11.52-.47,4.2-.78,9.96-.78,15.88s.31,11.83.78,15.88c1.25,9.34,6.07,10.74,15.25,11.52,7.78.78,16.97.93,23.97.93s16.03-.16,23.97-.93c9.18-.78,13.85-2.18,15.1-11.52.62-4.05.93-9.96.93-15.88s-.31-11.67-.93-15.88ZM36.75,59.64v-24.12l20.86,11.98-20.86,12.14Z"/>
</svg>