<?xml version="1.0" encoding="utf-8"?>
<!-- Generator: Adobe Illustrator 25.2.3, SVG Export Plug-In . SVG Version: 6.00 Build 0)  -->
<svg version="1.1" xmlns="http://www.w3.org/2000/svg" xmlns:xlink="http://www.w3.org/1999/xlink" x="0px" y="0px"
	 viewBox="0 0 25 25" style="enable-background:new 0 0 25 25;" xml:space="preserve">
<style type="text/css">
	.st0{display:none;}
	.st1{display:inline;}
	.st2{clip-path:url(#SVGID_2_);fill:#0068AD;}
	.st3{clip-path:url(#SVGID_4_);fill:#0068AD;}
	.st4{clip-path:url(#SVGID_6_);fill:#0068AD;}
	.st5{clip-path:url(#SVGID_8_);fill:#0068AD;}
</style>
<g id="Layer_3" class="st0">
	<g class="st1">
		<g>
			<g>
				<defs>
					<path id="SVGID_1_" d="M4.8,2.3l17.9,17.9c0.3,0.3,0.3,0.9,0,1.2l-1.2,1.2c-0.3,0.3-0.9,0.3-1.2,0L2.3,4.8C2,4.4,2,3.9,2.3,3.5
						l1.2-1.2C3.9,2,4.4,2,4.8,2.3z"/>
				</defs>
				<clipPath id="SVGID_2_">
					<use xlink:href="#SVGID_1_"  style="overflow:visible;"/>
				</clipPath>
				<polygon class="st2" points="5.1,-3.5 29.4,20.8 19.9,28.5 -3.5,5.1 				"/>
			</g>
		</g>
		<g>
			<g>
				<defs>
					<path id="SVGID_3_" d="M2.3,20.2L20.2,2.3c0.3-0.3,0.9-0.3,1.2,0l1.2,1.2c0.3,0.3,0.3,0.9,0,1.2l-17.8,18
						c-0.3,0.3-0.9,0.3-1.2,0l-1.2-1.2C2,21.1,2,20.6,2.3,20.2z"/>
				</defs>
				<clipPath id="SVGID_4_">
					<use xlink:href="#SVGID_3_"  style="overflow:visible;"/>
				</clipPath>
				<polygon class="st3" points="-3.5,19.9 20.8,-4.4 28.5,5.1 4.2,29.4 				"/>
			</g>
		</g>
	</g>
</g>
<g id="Layer_3_copy">
	<g>
		<g>
			<defs>
				<path id="SVGID_5_" d="M3.8,6.3l10.9,10.9c0.3,0.3,0.3,0.9,0,1.2l-1.2,1.2c-0.3,0.3-0.9,0.3-1.2,0L1.3,8.9C1,8.4,1,8,1.3,7.6
					l1.2-1.2C2.9,6.1,3.4,6.1,3.8,6.3z"/>
			</defs>
			<clipPath id="SVGID_6_">
				<use xlink:href="#SVGID_5_"  style="overflow:visible;"/>
			</clipPath>
			<polygon class="st4" points="4.1,0.6 21.4,17.8 11.9,25.5 -4.5,9.1 			"/>
		</g>
	</g>
	<g>
		<g>
			<defs>
				<path id="SVGID_7_" d="M11.3,17.2L22.2,6.3c0.3-0.3,0.9-0.3,1.2,0l1.2,1.2c0.3,0.3,0.3,0.9,0,1.2l-10.8,11
					c-0.3,0.3-0.9,0.3-1.2,0l-1.2-1.2C11,18.1,11,17.6,11.3,17.2z"/>
			</defs>
			<clipPath id="SVGID_8_">
				<use xlink:href="#SVGID_7_"  style="overflow:visible;"/>
			</clipPath>
			<polygon class="st5" points="5.5,16.9 22.8,-0.4 30.5,9.1 13.2,26.4 			"/>
		</g>
	</g>
</g>
</svg>
