<?xml version="1.0" encoding="UTF-8"?>
<svg id="Layer_1" xmlns="http://www.w3.org/2000/svg" version="1.1" viewBox="0 0 903 520.96">
  <!-- Generator: Adobe Illustrator 30.2.1, SVG Export Plug-In . SVG Version: 2.1.1 Build 1)  -->
  <defs>
    <style>
      .st0, .st1, .st2, .st3, .st4, .st5, .st6, .st7, .st8, .st9, .st10, .st11 {
        fill: none;
      }

      .st0, .st4, .st5, .st8 {
        stroke: #00b4e1;
      }

      .st1, .st2, .st9, .st10 {
        stroke: #b5b5b5;
      }

      .st1, .st4, .st7 {
        stroke-width: 1.35px;
      }

      .st12 {
        fill: #b5b5b5;
      }

      .st2, .st5, .st6 {
        stroke-width: 2px;
      }

      .st13 {
        fill: #00b4e1;
      }

      .st14 {
        font-size: 16.2px;
      }

      .st14, .st15, .st16 {
        isolation: isolate;
      }

      .st14, .st16 {
        font-family: HelveticaNeue-Light, 'Helvetica Neue';
        font-weight: 300;
      }

      .st3, .st6, .st7, .st11 {
        stroke: #61a300;
      }

      .st3, .st8, .st9 {
        stroke-width: 1.82px;
      }

      .st17 {
        fill: #61a300;
      }

      .st16 {
        font-size: 12px;
      }

      .st18 {
        display: none;
      }
    </style>
  </defs>
  <g id="Layer_11" data-name="Layer_1" class="st18">
    <polyline class="st5" points="365.84 345.8 378.5 343.8 391.16 340.8 403.82 347.8 416.48 350.8 429.15 343.8 441.81 335.8 454.47 338.8 467.13 330.8 479.79 333.8 492.45 325.8 505.11 320.8 517.77 315.8 530.43 323.8 543.09 317.8 555.75 310.8 568.41 305.8 581.07 307.8 593.73 300.8 606.4 303.8 619.06 295.8 631.72 293.8 644.38 290.8 657.04 292.8 669.7 285.8 682.36 283.8 695.02 280.8 707.68 278.8 720.34 275.8 733 277.8 745.66 273.8 758.32 272.8 770.99 270.8"/>
    <polyline class="st6" points="365.84 377.8 378.5 372.8 391.16 375.8 403.82 382.8 416.48 379.8 429.15 372.8 441.81 367.8 454.47 367.8 467.13 357.8 479.79 352.8 492.45 342.8 505.11 335.8 517.77 333.8 530.43 337.8 543.09 332.8 555.75 324.8 568.41 328.8 581.07 320.8 593.73 311.8 606.4 295.3 619.06 282.8 631.72 282.8 644.38 267.8 657.04 268.8 669.7 252.8 682.36 247.8 695.02 235.8 707.68 232.8 720.34 225.8 733 225.8 745.66 214.8 758.32 212.8 770.99 204.8"/>
    <polyline class="st2" points="777.61 405.61 764.78 402.73 752.08 404.76 739.01 398.08 726.67 400.82 713.72 394.04 700.9 393.17 687.95 396.39 675.12 390.51 661.69 385.13 649.35 387.86 636.4 386.09 623.58 385.21 610.02 378.92 597.8 382.56 584.37 377.17 572.03 379.91 558.84 376.33 545.41 374.94 532.09 368.46 520.48 374.61 507.29 371.03 494.1 367.45 480.55 361.15 468.33 364.79 454.77 358.5 442.55 362.14 428.88 358.85 415.22 359.46 403.23 357.1 391.61 361.35 378.67 359.58 365.84 358.7"/>
    <g>
      <g class="st15">
        <text class="st16" transform="translate(380.68 414.07)"><tspan x="0" y="0">Fun</tspan></text>
      </g>
      <rect class="st17" x="365.84" y="405.27" width="8.89" height="8.89"/>
    </g>
    <g>
      <g class="st15">
        <text class="st16" transform="translate(380.68 435.19)"><tspan x="0" y="0">Fitness</tspan></text>
      </g>
      <rect class="st13" x="365.84" y="426.39" width="8.89" height="8.89"/>
    </g>
    <g>
      <g class="st15">
        <text class="st16" transform="translate(382.54 456.32)"><tspan x="0" y="0">Risk of Injury</tspan></text>
      </g>
      <rect class="st12" x="365.84" y="447.52" width="8.89" height="8.89"/>
    </g>
  </g>
  <g id="Layer_2" class="st18">
    <polyline class="st0" points="365.84 345.8 378.5 343.8 391.16 340.8 403.82 347.8 416.48 350.8 429.15 343.8 441.81 335.8 454.47 338.8 467.13 330.8 479.79 333.8 492.45 325.8 505.11 320.8 517.77 315.8 530.43 323.8 543.09 317.8 555.75 310.8 568.41 305.8 581.07 307.8 593.73 300.8 606.4 303.8 619.06 295.8 631.72 293.8 644.38 290.8 657.04 292.8 669.7 285.8 682.36 283.8 695.02 280.8 707.68 278.8 720.34 275.8 733 277.8 745.66 273.8 758.32 272.8 770.99 270.8"/>
    <polyline class="st11" points="365.84 377.8 378.5 372.8 391.16 375.8 403.82 382.8 416.48 379.8 429.15 372.8 441.81 367.8 454.47 367.8 467.13 357.8 479.79 352.8 492.45 342.8 505.11 335.8 517.77 330.8 530.43 339.8 543.09 332.8 555.75 317.8 568.41 319.8 581.07 324.8 593.73 319.8 606.4 311.8 619.06 282.8 631.72 285.8 644.38 267.8 657.04 272.8 669.7 252.8 682.36 247.8 695.02 237.8 707.68 232.8 720.34 227.8 733 222.8 745.66 217.8 758.32 212.8 770.99 207.8"/>
    <polyline class="st10" points="778.77 382.8 765.92 382.43 753.23 382.95 740.07 380.78 727.84 384 714.83 382.73 701.98 382.35 688.98 381.08 676.13 380.71 662.49 375.85 650.27 379.06 637.26 377.79 624.41 377.42 610.62 371.66 598.56 375.77 584.92 370.91 572.7 374.13 559.38 371.06 545.75 366.2 532.27 362.24 520.98 370.84 507.66 367.77 494.34 364.71 480.56 358.95 468.49 363.06 454.7 357.31 442.63 361.42 428.84 358.66 415.21 359.8 403.14 357.92 391.7 362.62 378.69 361.35 365.84 360.97"/>
    <g>
      <g>
        <g class="st15">
          <text class="st16" transform="translate(583.25 459.62)"><tspan x="0" y="0">Fun</tspan></text>
        </g>
        <rect class="st17" x="568.41" y="450.82" width="8.89" height="8.89"/>
      </g>
      <g>
        <g class="st15">
          <text class="st16" transform="translate(636.2 459.62)"><tspan x="0" y="0">Fitness</tspan></text>
        </g>
        <rect class="st13" x="621.36" y="450.82" width="8.89" height="8.89"/>
      </g>
      <g>
        <g class="st15">
          <text class="st16" transform="translate(708.12 459.62)"><tspan x="0" y="0">Risk of Injury</tspan></text>
        </g>
        <rect class="st12" x="691.41" y="450.82" width="8.89" height="8.89"/>
      </g>
    </g>
  </g>
  <g id="Layer_2_copy" class="st18">
    <polyline class="st4" points="141.79 348.93 161.32 345.85 180.85 341.22 200.38 352.02 219.91 356.65 239.44 345.85 258.97 333.51 278.5 338.13 298.03 325.79 317.56 330.42 337.09 318.08 356.62 310.37 376.15 302.65 395.68 315 415.21 305.74 434.74 294.94 454.27 287.23 473.8 290.31 493.33 279.52 512.86 284.14 532.39 271.8 551.93 268.72 571.46 264.09 590.99 267.18 610.52 256.38 630.05 253.29 649.58 248.66 669.11 245.58 688.64 240.95 708.17 244.04 727.7 237.87 747.23 236.32 766.76 233.24"/>
    <polyline class="st7" points="141.79 398.3 161.32 390.58 180.85 395.21 200.38 406.01 219.91 401.38 239.44 390.58 258.97 382.87 278.5 382.87 298.03 367.44 317.56 359.73 337.09 344.31 356.62 333.51 376.15 325.79 395.68 339.68 415.21 328.88 434.74 305.74 454.27 308.83 473.8 316.54 493.33 308.83 512.86 296.48 532.39 251.75 551.93 256.38 571.46 228.61 590.99 236.32 610.52 205.47 630.05 197.76 649.58 182.33 669.11 174.62 688.64 166.91 708.17 159.19 727.7 151.48 747.23 143.77 766.76 136.05"/>
    <polyline class="st1" points="778.77 406 758.95 405.43 739.37 406.24 719.06 402.89 700.21 407.85 680.14 405.89 660.32 405.31 640.25 403.35 620.43 402.78 599.4 395.28 580.54 400.24 560.48 398.28 540.66 397.7 519.39 388.82 500.77 395.17 479.74 387.67 460.88 392.63 440.34 387.9 419.31 380.4 398.52 374.29 381.11 387.56 360.56 382.83 340.02 378.1 318.74 369.22 300.13 375.56 278.86 366.68 260.24 373.02 238.97 368.77 217.94 370.53 199.32 367.62 181.67 374.87 161.61 372.91 141.79 372.33"/>
    <g>
      <g>
        <g class="st15">
          <text class="st16" transform="translate(583.25 459.62)"><tspan x="0" y="0">Fun</tspan></text>
        </g>
        <rect class="st17" x="568.41" y="450.82" width="8.89" height="8.89"/>
      </g>
      <g>
        <g class="st15">
          <text class="st16" transform="translate(636.2 459.62)"><tspan x="0" y="0">Fitness</tspan></text>
        </g>
        <rect class="st13" x="621.36" y="450.82" width="8.89" height="8.89"/>
      </g>
      <g>
        <g class="st15">
          <text class="st16" transform="translate(708.12 459.62)"><tspan x="0" y="0">Risk of Injury</tspan></text>
        </g>
        <rect class="st12" x="691.41" y="450.82" width="8.89" height="8.89"/>
      </g>
    </g>
  </g>
  <g id="Layer_2_copy_2">
    <polyline class="st8" points=".5 405.72 22.66 401.56 44.82 395.31 66.98 409.89 89.13 416.13 111.29 401.56 133.45 384.9 155.61 391.14 177.77 374.48 199.93 380.73 222.09 364.07 244.25 353.66 266.4 345.95 288.56 354.51 310.72 347.41 332.88 332.83 355.04 322.42 377.2 326.59 399.36 312.01 421.52 318.26 443.67 301.6 465.83 297.43 487.99 291.18 510.15 295.35 532.31 280.77 554.47 276.61 576.63 270.36 598.79 266.19 620.94 259.95 643.1 264.11 665.26 255.78 687.42 253.7 723.21 249.53"/>
    <polyline class="st3" points=".5 472.36 22.66 461.95 44.82 468.2 66.98 482.77 89.13 476.53 111.29 461.95 133.45 451.54 155.61 451.54 177.77 430.71 199.93 420.3 222.09 399.47 244.25 384.9 266.4 387.98 288.56 377.03 310.72 378.65 332.88 360.91 355.04 358.33 377.2 361.99 399.36 351.58 421.52 334.92 443.67 329.87 465.83 325.32 487.99 305.39 510.15 279.35 532.31 268.75 554.47 263.74 576.63 241.56 598.79 233.85 620.94 223.44 643.1 215.72 665.26 202.61 687.42 200.3 723.21 181.79"/>
    <polyline class="st9" points="723.21 482.77 700.72 481.99 678.5 483.08 655.46 478.56 634.07 485.26 611.3 482.61 588.81 481.84 566.05 479.19 543.56 478.41 519.7 470.99 498.3 474.99 475.54 472.34 453.05 471.56 428.92 464.97 407.79 468.14 383.93 459.37 362.54 464.71 339.23 458.33 315.37 448.21 291.78 446.7 272.03 457.86 248.72 451.48 225.41 445.09 201.27 433.1 180.15 441.67 156.02 429.68 134.9 438.24 110.76 432.5 86.9 434.88 65.78 430.95 45.75 440.74 22.99 438.09 .5 437.31"/>
    <g>
      <g class="st15">
        <text class="st14" transform="translate(756.38 187.66)"><tspan x="0" y="0">Fun</tspan></text>
      </g>
      <rect class="st17" x="736.35" y="175.78" width="12.01" height="12.01"/>
    </g>
    <g>
      <g class="st15">
        <text class="st14" transform="translate(756.38 255.41)"><tspan x="0" y="0">Fitness</tspan></text>
      </g>
      <rect class="st13" x="736.35" y="243.53" width="12.01" height="12.01"/>
    </g>
    <g>
      <g class="st15">
        <text class="st14" transform="translate(758.9 488.65)"><tspan x="0" y="0">Risk of Injury</tspan></text>
      </g>
      <rect class="st12" x="736.35" y="476.77" width="12.01" height="12.01"/>
    </g>
  </g>
</svg>