<?xml version="1.0" encoding="UTF-8"?>
<svg id="Layer_1" xmlns="http://www.w3.org/2000/svg" version="1.1" viewBox="0 0 1044.92 573.96">
  <!-- Generator: Adobe Illustrator 30.2.1, SVG Export Plug-In . SVG Version: 2.1.1 Build 1)  -->
  <defs>
    <style>
      .st0, .st1, .st2, .st3, .st4, .st5, .st6, .st7, .st8, .st9 {
        fill: none;
      }

      .st0, .st3, .st4 {
        stroke: #00b4e1;
      }

      .st1, .st2, .st7, .st8 {
        stroke: #b5b5b5;
      }

      .st1, .st3, .st6 {
        stroke-width: 1.35px;
      }

      .st10 {
        fill: #b5b5b5;
      }

      .st2, .st4, .st5 {
        stroke-width: 2px;
      }

      .st11 {
        fill: #00b4e1;
      }

      .st12, .st13 {
        isolation: isolate;
      }

      .st14 {
        fill: #61a300;
      }

      .st5, .st6, .st9 {
        stroke: #61a300;
      }

      .st13 {
        font-family: HelveticaNeue-Light, 'Helvetica Neue';
        font-size: 12px;
        font-weight: 300;
      }

      .st7 {
        stroke-width: 1.82px;
      }

      .st15 {
        display: none;
      }
    </style>
  </defs>
  <g id="Layer_11" data-name="Layer_1" class="st15">
    <polyline class="st4" points="365.34 399.3 378 397.3 390.66 394.3 403.32 401.3 415.98 404.3 428.65 397.3 441.31 389.3 453.97 392.3 466.63 384.3 479.29 387.3 491.95 379.3 504.61 374.3 517.27 369.3 529.93 377.3 542.59 371.3 555.25 364.3 567.91 359.3 580.57 361.3 593.23 354.3 605.9 357.3 618.56 349.3 631.22 347.3 643.88 344.3 656.54 346.3 669.2 339.3 681.86 337.3 694.52 334.3 707.18 332.3 719.84 329.3 732.5 331.3 745.16 327.3 757.82 326.3 770.49 324.3"/>
    <polyline class="st5" points="365.34 431.3 378 426.3 390.66 429.3 403.32 436.3 415.98 433.3 428.65 426.3 441.31 421.3 453.97 421.3 466.63 411.3 479.29 406.3 491.95 396.3 504.61 389.3 517.27 387.3 529.93 391.3 542.59 386.3 555.25 378.3 567.91 382.3 580.57 374.3 593.23 365.3 605.9 348.8 618.56 336.3 631.22 336.3 643.88 321.3 656.54 322.3 669.2 306.3 681.86 301.3 694.52 289.3 707.18 286.3 719.84 279.3 732.5 279.3 745.16 268.3 757.82 266.3 770.49 258.3"/>
    <polyline class="st2" points="777.11 459.11 764.28 456.23 751.58 458.26 738.51 451.58 726.17 454.32 713.22 447.54 700.4 446.67 687.45 449.89 674.62 444.01 661.19 438.63 648.85 441.36 635.9 439.59 623.08 438.71 609.52 432.42 597.3 436.06 583.87 430.67 571.53 433.41 558.34 429.83 544.91 428.44 531.59 421.96 519.98 428.11 506.79 424.53 493.6 420.95 480.05 414.65 467.83 418.29 454.27 412 442.05 415.64 428.38 412.35 414.72 412.96 402.73 410.6 391.11 414.85 378.17 413.08 365.34 412.2"/>
    <g>
      <g class="st12">
        <text class="st13" transform="translate(380.18 467.57)"><tspan x="0" y="0">Fun</tspan></text>
      </g>
      <rect class="st14" x="365.34" y="458.77" width="8.89" height="8.89"/>
    </g>
    <g>
      <g class="st12">
        <text class="st13" transform="translate(380.18 488.69)"><tspan x="0" y="0">Fitness</tspan></text>
      </g>
      <rect class="st11" x="365.34" y="479.89" width="8.89" height="8.89"/>
    </g>
    <g>
      <g class="st12">
        <text class="st13" transform="translate(382.04 509.82)"><tspan x="0" y="0">Risk of Injury</tspan></text>
      </g>
      <rect class="st10" x="365.34" y="501.02" width="8.89" height="8.89"/>
    </g>
  </g>
  <g id="Layer_2" class="st15">
    <polyline class="st0" points="365.34 399.3 378 397.3 390.66 394.3 403.32 401.3 415.98 404.3 428.65 397.3 441.31 389.3 453.97 392.3 466.63 384.3 479.29 387.3 491.95 379.3 504.61 374.3 517.27 369.3 529.93 377.3 542.59 371.3 555.25 364.3 567.91 359.3 580.57 361.3 593.23 354.3 605.9 357.3 618.56 349.3 631.22 347.3 643.88 344.3 656.54 346.3 669.2 339.3 681.86 337.3 694.52 334.3 707.18 332.3 719.84 329.3 732.5 331.3 745.16 327.3 757.82 326.3 770.49 324.3"/>
    <polyline class="st9" points="365.34 431.3 378 426.3 390.66 429.3 403.32 436.3 415.98 433.3 428.65 426.3 441.31 421.3 453.97 421.3 466.63 411.3 479.29 406.3 491.95 396.3 504.61 389.3 517.27 384.3 529.93 393.3 542.59 386.3 555.25 371.3 567.91 373.3 580.57 378.3 593.23 373.3 605.9 365.3 618.56 336.3 631.22 339.3 643.88 321.3 656.54 326.3 669.2 306.3 681.86 301.3 694.52 291.3 707.18 286.3 719.84 281.3 732.5 276.3 745.16 271.3 757.82 266.3 770.49 261.3"/>
    <polyline class="st8" points="778.27 436.3 765.42 435.93 752.73 436.45 739.57 434.28 727.34 437.5 714.33 436.23 701.48 435.85 688.48 434.58 675.63 434.21 661.99 429.35 649.77 432.56 636.76 431.29 623.91 430.92 610.12 425.16 598.06 429.27 584.42 424.41 572.2 427.63 558.88 424.56 545.25 419.7 531.77 415.74 520.48 424.34 507.16 421.27 493.84 418.21 480.06 412.45 467.99 416.56 454.2 410.81 442.13 414.92 428.34 412.16 414.71 413.3 402.64 411.42 391.2 416.12 378.19 414.85 365.34 414.47"/>
    <g>
      <g>
        <g class="st12">
          <text class="st13" transform="translate(582.75 513.12)"><tspan x="0" y="0">Fun</tspan></text>
        </g>
        <rect class="st14" x="567.91" y="504.32" width="8.89" height="8.89"/>
      </g>
      <g>
        <g class="st12">
          <text class="st13" transform="translate(635.7 513.12)"><tspan x="0" y="0">Fitness</tspan></text>
        </g>
        <rect class="st11" x="620.86" y="504.32" width="8.89" height="8.89"/>
      </g>
      <g>
        <g class="st12">
          <text class="st13" transform="translate(707.62 513.12)"><tspan x="0" y="0">Risk of Injury</tspan></text>
        </g>
        <rect class="st10" x="690.91" y="504.32" width="8.89" height="8.89"/>
      </g>
    </g>
  </g>
  <g id="Layer_2_copy" class="st15">
    <polyline class="st3" points="141.29 402.43 160.82 399.35 180.35 394.72 199.88 405.52 219.41 410.15 238.94 399.35 258.47 387.01 278 391.63 297.53 379.29 317.06 383.92 336.59 371.58 356.12 363.87 375.65 356.15 395.18 368.5 414.71 359.24 434.24 348.44 453.77 340.73 473.3 343.81 492.83 333.02 512.36 337.64 531.89 325.3 551.43 322.22 570.96 317.59 590.49 320.68 610.02 309.88 629.55 306.79 649.08 302.16 668.61 299.08 688.14 294.45 707.67 297.54 727.2 291.37 746.73 289.82 766.26 286.74"/>
    <polyline class="st6" points="141.29 451.8 160.82 444.08 180.35 448.71 199.88 459.51 219.41 454.88 238.94 444.08 258.47 436.37 278 436.37 297.53 420.94 317.06 413.23 336.59 397.81 356.12 387.01 375.65 379.29 395.18 393.18 414.71 382.38 434.24 359.24 453.77 362.33 473.3 370.04 492.83 362.33 512.36 349.98 531.89 305.25 551.43 309.88 570.96 282.11 590.49 289.82 610.02 258.97 629.55 251.26 649.08 235.83 668.61 228.12 688.14 220.41 707.67 212.69 727.2 204.98 746.73 197.27 766.26 189.55"/>
    <polyline class="st1" points="778.27 459.5 758.45 458.93 738.87 459.74 718.56 456.39 699.71 461.35 679.64 459.39 659.82 458.81 639.75 456.85 619.93 456.28 598.9 448.78 580.04 453.74 559.98 451.78 540.16 451.2 518.89 442.32 500.27 448.67 479.24 441.17 460.38 446.13 439.84 441.4 418.81 433.9 398.02 427.79 380.61 441.06 360.06 436.33 339.52 431.6 318.24 422.72 299.63 429.06 278.36 420.18 259.74 426.52 238.47 422.27 217.44 424.03 198.82 421.12 181.17 428.37 161.11 426.41 141.29 425.83"/>
    <g>
      <g>
        <g class="st12">
          <text class="st13" transform="translate(582.75 513.12)"><tspan x="0" y="0">Fun</tspan></text>
        </g>
        <rect class="st14" x="567.91" y="504.32" width="8.89" height="8.89"/>
      </g>
      <g>
        <g class="st12">
          <text class="st13" transform="translate(635.7 513.12)"><tspan x="0" y="0">Fitness</tspan></text>
        </g>
        <rect class="st11" x="620.86" y="504.32" width="8.89" height="8.89"/>
      </g>
      <g>
        <g class="st12">
          <text class="st13" transform="translate(707.62 513.12)"><tspan x="0" y="0">Risk of Injury</tspan></text>
        </g>
        <rect class="st10" x="690.91" y="504.32" width="8.89" height="8.89"/>
      </g>
    </g>
  </g>
  <polyline class="st7" points="722.71 536.27 700.22 535.49 678 536.58 654.96 532.06 633.57 538.76 610.8 536.11 588.31 535.34 565.55 532.69 543.06 531.91 519.2 524.49 497.8 528.49 475.04 525.84 452.55 525.06 428.42 518.47 407.29 521.64 383.43 512.87 362.04 518.21 338.73 511.83 314.87 501.71 291.28 500.2 271.53 511.36 248.22 504.98 224.91 498.59 200.77 486.6 179.65 495.17 155.52 483.18 134.4 491.74 110.26 486 86.4 488.38 65.28 484.45 45.25 494.24 22.49 491.59 0 490.81"/>
</svg>