<?xml version="1.0" encoding="UTF-8"?>
<svg xmlns="http://www.w3.org/2000/svg" viewBox="0 0 90 90">
  <defs>
    <style>
      .cls-1 {
        fill: #fff;
        fill-rule: evenodd;
      }
    </style>
  </defs>
  <g id="Layer_1" data-name="Layer 1">
    <path class="cls-1" d="M35.59,90h17.44v-40.22h12.88l2.58-16.25h-15.46v-12.28c0-4.56,4.36-7.13,8.52-7.13h7.53V.64L55.6.04c-12.88-.79-20.01,9.31-20.01,21.4v12.09h-14.66v16.25h14.66v40.22Z"/>
  </g>
  <g id="Layer_2" data-name="Layer 2">
    <path class="cls-1" d="M26.91,10.7h33.63c10.8,0,19.69,8.89,19.69,19.69v33.45c0,10.8-8.89,19.69-19.69,19.69H26.91c-10.8,0-19.69-8.89-19.69-19.69V30.39c0-10.8,8.89-19.69,19.69-19.69h0ZM63.32,23.42h0c2.26,0,4.18,1.92,4.18,4.18h0c0,2.26-1.92,4.18-4.18,4.18h0c-2.44,0-4.18-1.92-4.18-4.18h0c0-2.26,1.74-4.18,4.18-4.18h0ZM43.64,27.25h.17c10.8,0,19.86,9.06,19.86,19.86h0c0,10.98-9.06,19.86-19.86,19.86h-.17c-10.8,0-19.69-8.89-19.69-19.86h0c0-10.8,8.89-19.86,19.69-19.86h0ZM43.64,34.05h.17c7.14,0,13.07,5.92,13.07,13.07h0c0,7.32-5.92,13.24-13.07,13.24h-.17c-7.14,0-13.07-5.92-13.07-13.24h0c0-7.14,5.92-13.07,13.07-13.07h0ZM27.09,16.97h33.28c7.49,0,13.59,6.1,13.59,13.59v33.1c0,7.49-6.1,13.59-13.59,13.59H27.09c-7.49,0-13.59-6.1-13.59-13.59V30.56c0-7.49,6.1-13.59,13.59-13.59h0Z"/>
  </g>
  <g id="Layer_3" data-name="Layer 3">
    <path class="cls-1" d="M44.4,30.93C40.82,12.07,63.5.85,76.87,14.46c0,0,5.97-1.67,11.22-5.01,0,0-1.91,6.45-8.36,10.5,0,0,7.16-.95,10.27-2.86,0,0-3.1,6.45-8.83,8.83,3.1,43.21-43.45,69.47-81.17,47.98,0,0,18.62.95,26.5-8.12,0,0-11.46.95-17.19-12.89,0,0,4.3,1.67,8.59-.48,0,0-13.37-2.15-14.56-18.14,0,0,4.3,3.34,9.07,2.15,0,0-14.8-8.83-6.45-24.83,0,0,15.76,20.05,38.44,19.34h0Z"/>
  </g>
</svg>